<svg width="49" height="49" viewBox="0 0 49 49" fill="none" xmlns="http://www.w3.org/2000/svg">
<path d="M24.5 16.345C19.985 16.345 16.345 20.02 16.345 24.5C16.345 28.98 20.02 32.655 24.5 32.655C28.98 32.655 32.655 28.98 32.655 24.5C32.655 20.02 28.98 16.345 24.5 16.345ZM49 24.5C49 21.105 49 17.78 48.825 14.385C48.65 10.465 47.74 6.965 44.87 4.13C42 1.26 38.535 0.35 34.615 0.175C31.22 -1.63913e-07 27.895 0 24.5 0C21.105 0 17.78 -1.63913e-07 14.385 0.175C10.465 0.35 6.965 1.26 4.13 4.13C1.26 7 0.35 10.465 0.175 14.385C-1.78814e-07 17.78 0 21.105 0 24.5C0 27.895 -1.78814e-07 31.22 0.175 34.615C0.35 38.535 1.26 42.035 4.13 44.87C7 47.74 10.465 48.65 14.385 48.825C17.78 49 21.105 49 24.5 49C27.895 49 31.22 49 34.615 48.825C38.535 48.65 42.035 47.74 44.87 44.87C47.74 42 48.65 38.535 48.825 34.615C49.035 31.255 49 27.895 49 24.5ZM24.5 37.065C17.535 37.065 11.935 31.465 11.935 24.5C11.935 17.535 17.535 11.935 24.5 11.935C31.465 11.935 37.065 17.535 37.065 24.5C37.065 31.465 31.465 37.065 24.5 37.065ZM37.59 14.35C35.98 14.35 34.65 13.055 34.65 11.41C34.65 9.765 35.945 8.47 37.59 8.47C39.235 8.47 40.53 9.765 40.53 11.41C40.5389 11.7934 40.4689 12.1745 40.3244 12.5297C40.1799 12.8849 39.964 13.2067 39.69 13.475C39.4217 13.749 39.0999 13.9649 38.7447 14.1094C38.3895 14.2539 38.0084 14.3239 37.625 14.315L37.59 14.35Z" fill="black"/>
</svg>
