<svg width="48" height="48" viewBox="0 0 48 48" fill="none" xmlns="http://www.w3.org/2000/svg">
              <g clip-path="url(#clip0_1_58840)">
                <path d="M48 0H0V48H48V0Z" fill="#CE202F"></path>
                <path d="M21.1183 21.8932L16.9116 22.1521C16.8397 21.7925 16.6851 21.4689 16.4478 21.1813C16.2104 20.8864 15.8977 20.6527 15.5093 20.4801C15.1282 20.3004 14.6716 20.2105 14.1395 20.2105C13.4275 20.2105 12.8271 20.3615 12.3381 20.6635C11.8491 20.9583 11.6046 21.3539 11.6046 21.85C11.6046 22.2455 11.7628 22.5799 12.0792 22.8532C12.3956 23.1264 12.9385 23.3458 13.7079 23.5112L16.7066 24.1152C18.3174 24.446 19.5184 24.9782 20.3093 25.7117C21.1004 26.4452 21.4958 27.4087 21.4958 28.6024C21.4958 29.6883 21.1759 30.6411 20.5358 31.4609C19.903 32.2806 19.0329 32.9207 17.9255 33.3809C16.8253 33.834 15.556 34.0605 14.1178 34.0605C11.9246 34.0605 10.1771 33.6038 8.87558 32.6905C7.58119 31.7701 6.82253 30.5189 6.59961 28.9368L11.1192 28.6995C11.2558 29.3683 11.5866 29.8788 12.1116 30.2313C12.6365 30.5763 13.3088 30.7489 14.1286 30.7489C14.934 30.7489 15.5813 30.5943 16.0703 30.2852C16.5664 29.9688 16.8181 29.5624 16.8253 29.0662C16.8181 28.6492 16.6419 28.3076 16.2968 28.0415C15.9516 27.7683 15.4194 27.5598 14.7003 27.4159L11.8311 26.8443C10.2131 26.5206 9.00861 25.9597 8.21759 25.1615C7.43377 24.3633 7.04186 23.3458 7.04186 22.1089C7.04186 21.0446 7.3295 20.1278 7.90479 19.3583C8.48726 18.5889 9.30344 17.9957 10.3534 17.5786C11.4104 17.1615 12.6473 16.953 14.0639 16.953C16.1565 16.953 17.8032 17.3952 19.0042 18.2797C20.2123 19.1642 20.917 20.3687 21.1183 21.8932ZM33.202 17.1687V20.6204H23.2244V17.1687H33.202ZM25.4896 13.1992H30.0847V28.6456C30.0847 29.0699 30.1494 29.4006 30.2788 29.6379C30.4083 29.8681 30.5881 30.0299 30.8182 30.1233C31.0554 30.2168 31.3287 30.2636 31.6379 30.2636C31.8537 30.2636 32.0694 30.2456 32.2852 30.2096C32.5009 30.1665 32.6663 30.1341 32.7813 30.1126L33.504 33.5319C33.2739 33.6038 32.9503 33.6865 32.5332 33.78C32.1161 33.8807 31.6092 33.9418 31.0123 33.9633C29.9049 34.0065 28.9342 33.8591 28.1 33.5211C27.273 33.1832 26.6294 32.6582 26.1692 31.9463C25.709 31.2344 25.4824 30.3355 25.4896 29.2496V13.1992ZM38.8811 34.0173C38.1692 34.0173 37.5579 33.7656 37.0474 33.2623C36.544 32.7516 36.2923 32.1405 36.2923 31.4285C36.2923 30.7238 36.544 30.1198 37.0474 29.6163C37.5579 29.113 38.1692 28.8613 38.8811 28.8613C39.5715 28.8613 40.1755 29.113 40.6933 29.6163C41.211 30.1198 41.4699 30.7238 41.4699 31.4285C41.4699 31.9031 41.3477 32.3382 41.1032 32.7337C40.8659 33.122 40.5531 33.4348 40.1648 33.6722C39.7764 33.9022 39.3486 34.0173 38.8811 34.0173Z" fill="white"></path>
              </g>
              <defs>
                <clipPath id="clip0_1_58840">
                  <rect width="48" height="48" fill="white"></rect>
                </clipPath>
              </defs>
            </svg>